<svg width="435" height="149" viewBox="0 0 435 149" fill="none" xmlns="http://www.w3.org/2000/svg">
<g clip-path="url(#clip0_2342_3040)">
<path d="M106.072 45.3073V22.2631H83.888V30.4106H96.9771C96.4241 32.8427 93.413 37.4639 86.2232 37.4639C79.1562 37.4639 73.1339 32.7821 73.1339 23.7832C73.1339 14.1765 80.0778 10.2851 85.9773 10.2851C93.2285 10.2851 96.1169 15.1493 96.7928 17.8246L106.134 14.6021C104.229 8.58267 98.4521 1.28638 85.9773 1.28638C73.6869 1.28638 63.3015 10.2243 63.3015 23.7832C63.3015 37.403 73.2567 46.2193 85.3628 46.2193C91.5694 46.2193 95.6868 43.6657 97.5918 40.9295L98.2062 45.3073H106.072Z" fill="white"/>
<path d="M119.135 45.3072V15.0884H109.794V30.1978V45.3072H119.135ZM108.995 5.84646C108.995 8.82579 111.453 11.2579 114.403 11.2579C117.476 11.2579 119.934 8.82579 119.934 5.84646C119.934 2.86715 117.476 0.435059 114.403 0.435059C111.453 0.435059 108.995 2.86715 108.995 5.84646Z" fill="white"/>
<path d="M136.564 6.27173H128.206V10.1631C128.206 12.96 126.67 15.0881 123.474 15.0881H121.938V23.1748H127.346V36.1258C127.346 42.145 131.217 45.8541 137.547 45.8541C140.497 45.8541 142.033 45.1853 142.402 45.0029V37.3417C141.849 37.4634 140.927 37.6458 139.944 37.6458C137.916 37.6458 136.564 36.977 136.564 34.484V23.1748H142.525V15.0881H136.564V6.27173Z" fill="white"/>
<path d="M176.919 12.778C175.998 7.73143 171.881 1.28638 161.004 1.28638C152.646 1.28638 145.395 7.0018 145.395 15.1493C145.395 21.5336 149.881 26.3978 157.255 27.7962L163.216 28.8906C166.104 29.4379 167.886 31.0188 167.886 33.2077C167.886 35.883 165.551 37.7069 161.741 37.7069C155.78 37.7069 153.076 34.2412 152.707 30.2891L143.797 32.4171C144.411 38.4974 149.573 46.2193 161.618 46.2193C172.003 46.2193 177.718 39.3486 177.718 32.5997C177.718 26.4585 173.417 21.1687 165.121 19.6487L159.283 18.5543C156.272 18.007 154.981 16.487 154.981 14.4197C154.981 12.0484 157.316 9.79871 160.942 9.79871C166.227 9.79871 167.886 13.2036 168.193 15.2101L176.919 12.778Z" fill="white"/>
<path d="M192.539 6.27173H184.181V10.1631C184.181 12.96 182.645 15.0881 179.449 15.0881H177.913V23.1748H183.321V36.1258C183.321 42.145 187.192 45.8541 193.521 45.8541C196.471 45.8541 198.008 45.1853 198.376 45.0029V37.3417C197.823 37.4634 196.902 37.6458 195.917 37.6458C193.889 37.6458 192.539 36.977 192.539 34.484V23.1748H198.498V15.0881H192.539V6.27173Z" fill="white"/>
<path d="M201.455 36.9772C201.455 41.7805 205.326 46.1583 212.024 46.1583C216.079 46.1583 219.03 44.4558 220.627 41.9022C220.627 43.9694 220.873 45.0638 220.934 45.3071H229.353C229.292 45.0032 228.985 42.9967 228.985 40.6252V25.8503C228.985 19.6485 225.36 14.1763 215.465 14.1763C206.493 14.1763 202.438 19.8917 202.069 24.2087L210.181 25.8503C210.366 23.6006 212.148 21.4117 215.404 21.4117C218.353 21.4117 219.891 22.9318 219.891 24.695C219.891 25.7288 219.338 26.5191 217.678 26.7624L210.488 27.8568C205.448 28.5865 201.455 31.6265 201.455 36.9772ZM214.298 39.4701C211.716 39.4701 210.673 37.9499 210.673 36.3692C210.673 34.241 212.148 33.329 214.114 33.0251L219.891 32.113V33.4507C219.891 38.1325 217.064 39.4701 214.298 39.4701Z" fill="white"/>
<path d="M249.556 14.7845C249.775 14.7845 249.334 14.7845 249.556 14.7845C247.099 14.7845 243.226 15.7574 241.629 19.1623V15.0886H232.596V45.3073H241.936V32.1133C241.936 26.0938 245.317 23.9049 249.065 23.9049C249.493 23.9049 248.421 23.9051 249.493 23.9049L249.556 14.7845Z" fill="white"/>
<path d="M265.315 6.27173H256.957V10.1631C256.957 12.96 255.421 14.7841 252.226 14.7841V23.9044H256.097V36.1258C256.097 42.145 259.967 45.8541 266.297 45.8541C269.248 45.8541 270.784 45.1853 271.152 45.0029V37.3417C270.599 37.4634 269.677 37.6458 268.695 37.6458C266.667 37.6458 265.315 36.977 265.315 34.484V23.1748H271.276V15.0881H265.315V6.27173Z" fill="white"/>
<path fill-rule="evenodd" clip-rule="evenodd" d="M23.5171 42.0298C33.8464 42.0298 42.2197 33.6564 42.2197 23.3271C42.2197 12.9979 33.8464 4.62446 23.5171 4.62446C13.1879 4.62446 4.81441 12.9979 4.81441 23.3271C4.81441 33.6564 13.1879 42.0298 23.5171 42.0298ZM23.5171 46.2192C36.16 46.2192 46.4092 35.9701 46.4092 23.3271C46.4092 10.6842 36.16 0.435059 23.5171 0.435059C10.8741 0.435059 0.625 10.6842 0.625 23.3271C0.625 35.9701 10.8741 46.2192 23.5171 46.2192Z" fill="white"/>
<path fill-rule="evenodd" clip-rule="evenodd" d="M50.7073 8.33987C52.0638 8.33987 53.1636 7.24019 53.1636 5.88368C53.1636 4.52715 52.0638 3.42749 50.7073 3.42749C49.3508 3.42749 48.2512 4.52715 48.2512 5.88368C48.2512 7.24019 49.3508 8.33987 50.7073 8.33987ZM50.7073 11.3323C53.7165 11.3323 56.156 8.89287 56.156 5.88368C56.156 2.8745 53.7165 0.435059 50.7073 0.435059C47.6981 0.435059 45.2588 2.8745 45.2588 5.88368C45.2588 8.89287 47.6981 11.3323 50.7073 11.3323Z" fill="white"/>
</g>
<path d="M294.17 23.3648H351.229C355.249 22.9726 363.288 25.4825 363.288 38.659C363.288 51.8355 363.288 74.3453 363.288 83.9532" stroke="white" stroke-width="5" stroke-dasharray="2 2"/>
<path d="M136.07 122.364L79.0107 122.364C74.9911 122.756 66.9519 120.247 66.9519 107.07C66.9519 93.8935 66.9519 71.3836 66.9519 61.7758" stroke="white" stroke-width="5" stroke-dasharray="2 2"/>
<g clip-path="url(#clip1_2342_3040)">
<path d="M203.592 121.95C203.592 136.096 191.934 147.564 177.552 147.564C163.171 147.564 151.512 136.096 151.512 121.95C151.512 107.804 163.171 96.3357 177.552 96.3357C191.934 96.3357 203.592 107.804 203.592 121.95ZM159.271 121.95C159.271 131.881 167.456 139.932 177.552 139.932C187.649 139.932 195.833 131.881 195.833 121.95C195.833 112.019 187.649 103.968 177.552 103.968C167.456 103.968 159.271 112.019 159.271 121.95Z" fill="white"/>
<path d="M262.764 121.969C262.764 128.639 259.57 141.316 244.866 146.421L236.837 121.969H262.764Z" fill="#FFF02D"/>
<path d="M244.93 146.315C239.702 147.996 234.067 148.006 228.833 146.343C223.599 144.68 219.035 141.429 215.795 137.057C212.555 132.685 210.805 127.416 210.797 122.005C210.79 116.595 212.524 111.321 215.751 106.94C218.978 102.559 223.533 99.2953 228.762 97.6175C233.991 95.9397 239.626 95.9337 244.859 97.6004C250.092 99.2672 254.654 102.521 257.891 106.895C261.128 111.27 262.873 116.54 262.877 121.95L236.837 121.969L244.93 146.315Z" fill="#007AFF"/>
<path d="M434.07 121.577C434.07 127.61 431.931 133.454 428.023 138.103C424.116 142.752 418.681 145.915 412.657 147.048C406.633 148.181 400.396 147.212 395.021 144.31C389.645 141.407 385.464 136.751 383.203 131.144C380.94 125.537 380.735 119.329 382.624 113.59C384.514 107.851 388.378 102.939 393.552 99.6998C398.724 96.4609 404.886 95.0976 410.972 95.8447C417.057 96.5918 422.687 99.4026 426.893 103.793L421.123 109.142C418.182 106.072 414.244 104.106 409.99 103.584C405.734 103.061 401.427 104.015 397.808 106.279C394.191 108.544 391.488 111.979 390.167 115.992C388.847 120.005 388.991 124.346 390.572 128.267C392.154 132.188 395.076 135.443 398.835 137.473C402.596 139.503 406.956 140.18 411.169 139.388C415.381 138.596 419.18 136.384 421.912 133.133C424.646 129.882 426.14 125.796 426.14 121.577H434.07Z" fill="white"/>
<path d="M434.094 121.579C434.094 128.249 430.901 140.926 416.197 146.03L408.167 121.579H434.094Z" fill="#007AFF"/>
<path fill-rule="evenodd" clip-rule="evenodd" d="M331.71 125.696C329.713 125.696 327.735 125.316 325.89 124.578C324.044 123.84 322.368 122.759 320.955 121.396C319.543 120.033 318.422 118.414 317.658 116.633C316.894 114.852 316.5 112.943 316.5 111.016C316.5 109.088 316.894 107.179 317.658 105.398C318.422 103.617 319.543 101.998 320.955 100.635C322.368 99.2722 324.044 98.1909 325.89 97.4531C327.735 96.7154 329.713 96.3357 331.71 96.3357H354.696V104.136H331.71V104.135C330.754 104.135 329.807 104.171 328.924 104.524C328.041 104.877 327.238 105.394 326.562 106.047C325.886 106.699 325.35 107.474 324.984 108.327C324.618 109.179 324.43 110.093 324.43 111.016C324.43 111.938 324.618 112.852 324.984 113.705C325.35 114.557 325.886 115.332 326.562 115.984C327.238 116.637 328.041 117.154 328.924 117.507C329.807 117.861 330.754 118.042 331.71 118.042V118.042L343.61 118.19V118.192C347.644 118.192 351.511 119.738 354.363 122.489C357.216 125.241 358.818 128.974 358.818 132.866C358.818 136.757 357.216 140.49 354.363 143.242C351.511 145.994 347.642 147.54 343.608 147.54H320.715V139.739H343.608V139.741C345.539 139.741 347.391 139.149 348.755 137.832C350.121 136.514 350.888 134.728 350.888 132.866C350.888 131.003 350.121 129.217 348.755 127.9C347.391 126.583 345.539 125.843 343.608 125.843V125.842L331.71 125.696Z" fill="white"/>
<path fill-rule="evenodd" clip-rule="evenodd" d="M289.144 96.3443V96.3357H278.018H276.25H270.269V115.483V147.564H278.018V134.535H287.773C288.418 134.599 289.072 134.631 289.735 134.631C290.61 134.631 291.471 134.575 292.316 134.464L300.003 147.563L308.964 147.568L299.766 131.897C305.42 128.546 309.201 122.449 309.201 115.483C309.201 104.908 300.486 96.3357 289.735 96.3357C289.537 96.3357 289.34 96.3386 289.144 96.3443ZM290.057 127.004V127.078H278.018V103.96H289.549C289.61 103.959 289.673 103.959 289.735 103.959C289.797 103.959 289.859 103.959 289.921 103.96H290.057V103.963C296.379 104.131 301.451 109.225 301.451 115.483C301.451 121.742 296.379 126.836 290.057 127.004Z" fill="white"/>
<path d="M374.041 96.5717H366.113V147.466H374.041V96.5717Z" fill="white"/>
</g>
<defs>
<clipPath id="clip0_2342_3040">
<rect width="270.89" height="45.7842" fill="white" transform="translate(0.625 0.435059)"/>
</clipPath>
<clipPath id="clip1_2342_3040">
<rect width="282.868" height="53.5156" fill="white" transform="translate(151.36 95.2583)"/>
</clipPath>
</defs>
</svg>
