<svg width="35" height="25" viewBox="0 0 35 25" fill="none" xmlns="http://www.w3.org/2000/svg">
<path fill-rule="evenodd" clip-rule="evenodd" d="M0.00195312 2.54816C0.00195312 1.59551 0.774226 0.823242 1.72687 0.823242H32.7754C33.7281 0.823242 34.5003 1.59551 34.5003 2.54816C34.5003 3.50081 33.7281 4.27308 32.7754 4.27308H1.72687C0.774226 4.27308 0.00195312 3.50081 0.00195312 2.54816ZM0.00195312 12.8976C0.00195312 11.945 0.774226 11.1727 1.72687 11.1727H32.7754C33.7281 11.1727 34.5003 11.945 34.5003 12.8976C34.5003 13.8503 33.7281 14.6226 32.7754 14.6226H1.72687C0.774226 14.6226 0.00195312 13.8503 0.00195312 12.8976ZM1.72687 21.5223C0.774226 21.5223 0.00195312 22.2946 0.00195312 23.2473C0.00195312 24.1999 0.774226 24.9722 1.72687 24.9722H32.7754C33.7281 24.9722 34.5003 24.1999 34.5003 23.2473C34.5003 22.2946 33.7281 21.5223 32.7754 21.5223H1.72687Z" fill="white"/>
</svg>
