<svg width="24" height="24" viewBox="0 0 24 24" fill="none" xmlns="http://www.w3.org/2000/svg">
<path fill-rule="evenodd" clip-rule="evenodd" d="M22.6291 3.045C23.271 2.40315 23.271 1.3625 22.6291 0.720647C21.9873 0.0787948 20.9466 0.0787948 20.3048 0.720647L11.6055 9.41986L2.90633 0.720647C2.26447 0.0787948 1.22383 0.0787948 0.581975 0.720647C-0.0598771 1.3625 -0.0598771 2.40315 0.581975 3.045L9.28119 11.7442L0.581975 20.4434C-0.0598771 21.0853 -0.0598771 22.1259 0.581975 22.7678C1.22383 23.4096 2.26447 23.4096 2.90633 22.7678L11.6055 14.0686L20.3048 22.7678C20.9466 23.4096 21.9873 23.4096 22.6291 22.7678C23.271 22.1259 23.271 21.0853 22.6291 20.4434L13.9299 11.7442L22.6291 3.045Z" fill="white"/>
</svg>
