<svg width="169" height="37" viewBox="0 0 169 37" fill="none" xmlns="http://www.w3.org/2000/svg">
<g clip-path="url(#clip0_251_2206)">
<path d="M37.5534 18.4876C37.5534 26.1281 31.1456 32.3219 23.2412 32.3219C15.3368 32.3219 8.92896 26.1281 8.92896 18.4876C8.92896 10.8471 15.3368 4.65332 23.2412 4.65332C31.1456 4.65332 37.5534 10.8471 37.5534 18.4876ZM13.1934 18.4876C13.1934 23.8515 17.6919 28.1998 23.2412 28.1998C28.7904 28.1998 33.289 23.8515 33.289 18.4876C33.289 13.1236 28.7904 8.77532 23.2412 8.77532C17.6919 8.77532 13.1934 13.1236 13.1934 18.4876Z" fill="white"/>
<path d="M70.0755 18.498C70.0755 22.1006 68.3201 28.9473 60.2386 31.7043L55.8254 18.498H70.0755Z" fill="#FFF02D"/>
<path d="M60.2734 31.6476C57.3999 32.5557 54.3027 32.561 51.426 31.6628C48.5492 30.7645 46.0406 29.0088 44.2598 26.6474C42.4791 24.286 41.5175 21.4402 41.5133 18.5181C41.509 15.5958 42.4621 12.7474 44.2359 10.3811C46.0096 8.01485 48.5131 6.25225 51.3872 5.34607C54.2612 4.43988 57.3584 4.43666 60.2345 5.33687C63.1107 6.23707 65.618 7.99447 67.397 10.3571C69.1761 12.7197 70.1356 15.5661 70.1378 18.4883L55.8255 18.4983L60.2734 31.6476Z" fill="#007AFF"/>
<path d="M164.229 18.2863C164.229 21.5446 163.055 24.7008 160.907 27.2117C158.758 29.7227 155.772 31.4312 152.461 32.0431C149.15 32.655 145.722 32.132 142.768 30.5642C139.812 28.9963 137.515 26.4818 136.272 23.4534C135.028 20.4251 134.916 17.0723 135.954 13.9725C136.992 10.8726 139.117 8.21967 141.96 6.47029C144.804 4.72092 148.189 3.98461 151.534 4.38813C154.88 4.79165 157.974 6.30974 160.286 8.68107L157.114 11.5698C155.497 9.91169 153.333 8.85015 150.994 8.568C148.655 8.28584 146.288 8.8007 144.3 10.024C142.312 11.2472 140.826 13.1023 140.101 15.2699C139.375 17.4374 139.453 19.7818 140.323 21.8994C141.192 24.017 142.798 25.7753 144.864 26.8716C146.93 27.9679 149.328 28.3336 151.642 27.9057C153.958 27.4779 156.046 26.2832 157.548 24.5274C159.05 22.7716 159.872 20.5647 159.872 18.2863H164.229Z" fill="white"/>
<path d="M164.243 18.2881C164.243 21.8906 162.478 28.7972 154.397 31.5542L149.993 18.2881H164.243Z" fill="#007AFF"/>
<path fill-rule="evenodd" clip-rule="evenodd" d="M107.97 20.5107C106.872 20.5107 105.785 20.3055 104.771 19.9071C103.757 19.5087 102.835 18.9246 102.059 18.1884C101.282 17.4521 100.667 16.5781 100.247 15.6162C99.8265 14.6542 99.6102 13.6232 99.6102 12.582C99.6102 11.5408 99.8265 10.5097 100.247 9.5478C100.667 8.58586 101.282 7.71181 102.059 6.97557C102.835 6.23932 103.757 5.65531 104.771 5.25685C105.785 4.8584 106.872 4.65332 107.97 4.65332H120.604V8.86635H107.97V8.86557C107.444 8.86557 106.924 8.88496 106.439 9.07569C105.953 9.26641 105.512 9.54596 105.14 9.89837C104.769 10.2508 104.474 10.6692 104.273 11.1296C104.072 11.5901 103.968 12.0836 103.968 12.582C103.968 13.0804 104.072 13.5739 104.273 14.0343C104.474 14.4948 104.769 14.9131 105.14 15.2655C105.512 15.6179 105.953 15.8976 106.439 16.0883C106.924 16.279 107.444 16.3771 107.97 16.3772V16.377L114.511 16.4568V16.4577C116.727 16.458 118.853 17.293 120.421 18.779C121.989 20.2654 122.87 22.2812 122.87 24.3833C122.87 26.4852 121.989 28.5011 120.421 29.9874C118.853 31.4737 116.727 32.3088 114.51 32.3088H101.927V28.0957H114.51V28.0964C115.571 28.0964 116.588 27.7766 117.339 27.0654C118.088 26.354 118.511 25.3892 118.511 24.3833C118.511 23.3773 118.088 22.4125 117.339 21.7012C116.588 20.9898 115.571 20.5901 114.51 20.5901V20.5899L107.97 20.5107Z" fill="white"/>
<path fill-rule="evenodd" clip-rule="evenodd" d="M84.5751 4.65799V4.65332H78.4597H77.488H74.2007V14.995V32.3219H78.4597V25.2849H83.8214C84.176 25.3193 84.5357 25.3369 84.8997 25.3369C85.3807 25.3369 85.8543 25.3062 86.3185 25.2467L90.5432 32.3213L95.4687 32.3239L90.4131 23.8598C93.5206 22.0502 95.5988 18.7573 95.5988 14.995C95.5988 9.28349 90.8086 4.65332 84.8997 4.65332C84.7912 4.65332 84.6829 4.65488 84.5751 4.65799ZM85.077 21.2173V21.2572H78.4597V8.77126H84.7974C84.8315 8.77075 84.8655 8.7705 84.8997 8.7705C84.9339 8.7705 84.968 8.77075 85.0021 8.77126H85.077V8.77281C88.5515 8.86359 91.3394 11.6146 91.3394 14.995C91.3394 18.3755 88.5515 21.1265 85.077 21.2173Z" fill="white"/>
<path d="M131.237 4.78125H126.879V32.2696H131.237V4.78125Z" fill="white"/>
</g>
<defs>
<clipPath id="clip0_251_2206">
<rect width="155.363" height="28.7992" fill="white" transform="translate(8.92896 4.08789)"/>
</clipPath>
</defs>
</svg>
